<svg height="511pt" viewBox="1 -36 511.999 511" width="511pt" xmlns="http://www.w3.org/2000/svg"><path d="m490.789062 357.414062c0 1.578126-.679687 3.148438-2.03125 4.226563-11.605468 9.296875-27.6875 10.65625-40.703124 3.429687l-64.257813-35.816406c-6.816406-3.800781-12.515625-9.320312-16.53125-16.015625l-26.5625-66.085937-14.382813-35.796875v118.066406h-140.640624v-118.0625l-12.996094 32.324219v.011718l-27.949219 69.542969c-4.019531 6.699219-9.714844 12.214844-16.535156 16.015625l-64.253907 35.816406c-5.570312 3.089844-11.6875 4.609376-17.792968 4.609376-8.160156 0-16.265625-2.71875-22.914063-8.039063-2.648437-2.117187-2.71875-6.128906-.140625-8.324219l69.425782-59.351562c6.136718-5.257813 10.746093-12.074219 13.304687-19.742188l18.355469-54.789062 12.496094-37.285156c5.875-17.554688 19.8125-31.230469 37.472656-36.777344l51.011718-16.011719c20.074219-6.308594 41.597657-6.308594 61.679688 0l51 16.011719c17.664062 5.546875 31.597656 19.222656 37.476562 36.777344l14.585938 43.53125 16.265625 48.542968c2.558594 7.667969 7.164063 14.484375 13.304687 19.742188l69.421876 59.351562c1.261718 1.078125 1.890624 2.585938 1.890624 4.097656zm0 0" fill="#fedfc5"/><g fill="#fecbaa"><path d="m175.847656 220.671875c-6.53125 1.253906-11.976562 5.742187-14.457031 11.914063l-9.015625 22.425781v.011719l-27.949219 69.542968c-3.992187 6.652344-9.640625 12.132813-16.394531 15.929688l20.167969-11.242188c6.820312-3.800781 12.515625-9.316406 16.535156-16.015625l37.710937-93.832031zm0 0"/><path d="m320.394531 258.480469-14.386719-35.796875v106.738281h20.308594v-56.199219zm0 0"/><path d="m488.898438 353.316406-69.425782-59.351562c-6.136718-5.257813-10.746094-12.074219-13.304687-19.742188l-16.261719-48.542968-14.585938-43.53125c-5.878906-17.554688-19.8125-31.230469-37.476562-36.777344l-51-16.011719c-20.085938-6.308594-41.605469-6.308594-61.679688 0l-51.011718 16.011719c-7.605469 2.390625-14.511719 6.292968-20.390625 11.355468.027343-.007812.054687-.019531.082031-.027343l51.011719-16.015625c20.074219-6.308594 41.59375-6.308594 61.675781 0l51 16.015625c17.664062 5.546875 31.601562 19.222656 37.480469 36.773437l14.582031 43.535156 16.265625 48.542969c2.558594 7.667969 7.167969 14.484375 13.304687 19.742188l69.425782 59.347656c1.257812 1.082031 1.886718 2.589844 1.886718 4.097656 0 .210938-.011718.421875-.035156.632813 6.566406-.828125 12.925782-3.410156 18.316406-7.730469 1.351563-1.082031 2.03125-2.648437 2.03125-4.226563 0-1.511718-.628906-3.019531-1.890624-4.097656zm0 0"/></g><path d="m389.90625 225.679688-49.203125 21.472656-11.148437-27.742188c-.691407-1.714844-3.238282-1.21875-3.238282.625v109.386719l-69.273437 4-71.363281-4v-109.386719c0-1.847656-2.546876-2.339844-3.238282-.628906l-9.757812 24.277344-48.5-24.25 12.492187-37.285156c5.878907-17.554688 19.8125-31.226563 37.476563-36.777344l51.011718-16.011719c20.074219-6.308594 41.597657-6.308594 61.679688 0l51 16.011719c17.664062 5.550781 31.597656 19.222656 37.476562 36.777344zm0 0" fill="#25bed3"/><path d="m157.617188 153.699219c-1.324219.960937-2.617188 1.960937-3.855469 3.027343.027343-.007812.054687-.019531.082031-.027343l51.011719-16.015625c20.074219-6.308594 41.59375-6.308594 61.675781 0l51 16.015625c17.664062 5.546875 31.601562 19.222656 37.480469 36.773437l13.863281 41.386719 21.03125-9.179687-14.585938-43.53125c-5.878906-17.554688-19.8125-31.230469-37.476562-36.777344l-51-16.011719c-20.085938-6.308594-41.605469-6.308594-61.679688 0l-51.011718 16.011719c-1.390625.429687-2.757813.921875-4.101563 1.480468-.640625.257813-8.585937 4.070313-12.433593 6.847657zm0 0" fill="#11a6bf"/><path d="m161.390625 232.585938-1.828125 4.539062 13.121094 6.558594 9.757812-24.277344-6.59375 1.265625c-6.53125 1.253906-11.976562 5.742187-14.457031 11.914063zm0 0" fill="#11a6bf"/><path d="m462.957031 427.464844-6.558593 5.128906h-384.71875c-33.648438.019531-42.953126-42.492188-19.863282-62.917969l133.863282-40.253906h140.636718l125.566406 38.335937c26.488282 8.097657 32.90625 42.664063 11.074219 59.707032zm0 0" fill="#7f7ce8"/><path d="m227.285156 396.988281v35.605469h61.335938l-1.992188-14.195312-15.492187-14.046876zm0 0" fill="#fedfc5"/><path d="m213.570312 81.078125v-34.914063c0-25.21875 20.445313-45.664062 45.664063-45.664062s45.664063 20.445312 45.664063 45.664062v34.914063c0 25.21875-20.445313 45.664063-45.664063 45.664063s-45.664063-20.445313-45.664063-45.664063zm0 0" fill="#fedfc5"/><path d="m259.234375.5c-3.601563 0-7.101563.429688-10.464844 1.21875 20.175781 4.730469 35.203125 22.828125 35.203125 44.445312v34.914063c0 21.617187-15.027344 39.714844-35.203125 44.445313 3.363281.789062 6.863281 1.21875 10.464844 1.21875 25.21875 0 45.664063-20.445313 45.664063-45.664063v-34.914063c0-25.21875-20.445313-45.664062-45.664063-45.664062zm0 0" fill="#fecbaa"/><path d="m296.078125 432.59375h-14.992187c0-.199219.007812-.410156.027343-.621094.140625-2.15625.539063-21.800781-27.988281-24.75l-82.332031-8.597656-33.355469-3.488281c-4.121094-.429688-7.109375-4.105469-6.679688-8.226563.429688-4.117187 4.121094-7.117187 8.238282-6.6875l115.679687 12.085938c40.703125 4.210937 41.523438 35.496094 41.402344 40.285156zm0 0" fill="#6666d3"/><path d="m398.085938 392.957031c-.226563-4.132812-3.785157-7.296875-7.898438-7.074219l-131.039062 7.234376c-4.132813.226562-7.300782 3.765624-7.074219 7.898437.222656 3.996094 3.527343 7.085937 7.480469 7.085937.140624 0 .277343-.003906.417968-.011718l131.042969-7.234375c4.132813-.226563 7.300781-3.765625 7.070313-7.898438zm0 0" fill="#6666d3"/><path d="m504.503906 440.089844h-497.007812c-4.140625 0-7.496094-3.359375-7.496094-7.5s3.355469-7.496094 7.496094-7.496094h497.007812c4.140625 0 7.496094 3.359375 7.496094 7.496094 0 4.144531-3.355469 7.5-7.496094 7.5zm0 0" fill="#618aaa"/></svg>