<svg id="Layer_1_1_" enable-background="new 0 0 256 256" height="512" viewBox="0 0 256 256" width="512" xmlns="http://www.w3.org/2000/svg"><path d="m173.295 110.391-15.245-7.259-31.727 5.12-19.48.688c-1.993.07-3.767.26-5.712.639 6.679 32.717 22.764 36.254 22.764 36.254l7.694-.482c3.594-.183 7.188.363 10.565 1.605l2.894 1.064c2.228.819 4.583 1.238 6.957 1.238h12.182l12.664-5.01z" fill="#7f8b4b"/><path d="m173.295 110.391-1.884-.897 2.303 21.928c.672 6.4-3.002 12.464-8.986 14.831-1.679.664-3.468 1.005-5.274 1.005h-9.449c-2.374 0-4.728-.419-6.956-1.238l-2.895-1.064c-3.378-1.242-6.971-1.788-10.565-1.605l-7.694.482s-3.34-.745-7.606-4.636c5.175 5.654 9.606 6.636 9.606 6.636l7.694-.482c3.594-.183 7.188.363 10.565 1.605l2.894 1.064c2.228.819 4.584 1.238 6.957 1.238h12.181l12.664-5.01z" fill="#727d43"/><path d="m203.301 241.056-6.514.758-15.566-7.365-29.008-33.009-16.044 2.366 5.354 9.047c1.9 3.209 4.398 6.024 7.36 8.291l22.63 17.322 1.21 4.639c.51 1.957 1.788 3.626 3.544 4.629 1.266.724 2.715 1.063 4.171.978l9.15-.538 7.874 1.358c1.181.204 2.397-.031 3.417-.662l5.013-2.479z" fill="#f5d3a6"/><path d="m202.261 248.187 3.632-1.796-2.593-5.335-5.466.636c-.309.546-.487 1.13-.487 1.742.001 2.117 2.019 3.935 4.914 4.753z" fill="#f0c792"/><path d="m152.099 201.31-14.164-30.983c-1.268-2.775-2.678-5.483-4.222-8.115l-9.819-16.38s-16.085-3.537-22.764-36.254c-3.815.744-7.707 2.11-11.137 3.987-6.438 3.523-11.714 8.839-15.188 15.304l-2.443 4.546c-2.841 5.288-4.884 10.968-6.061 16.854l-4.919 24.596-6.428 10.15c-.964 1.522-1.837 3.094-2.634 4.7l12.716 3.493 1.409-5.009 8.515-10.105c1.436-1.704 2.775-3.488 4.011-5.342l17.209-25.341c4.114 7.348 10.684 17.889 19.431 28.125 15.733 18.411 19.08 25.775 19.08 25.775l1.478 2.497 16.044-2.366z" fill="#514654"/><path d="m47.27 206.627-2.959 24.81-3.682 9.373 1.428 6.665c.349 1.63 1.669 2.875 3.317 3.129l5.199.8c.507.078 1.024.058 1.524-.058l3.409-.795c2.794-.652 4.023-3.938 2.344-6.264l-5.17-7.158 12.357-43.92-12.716-3.493c-2.629 5.296-4.347 11.013-5.051 16.911z" fill="#f5d3a6"/><path d="m144.391 6.17-.954 1.717c-.462.831-.646 1.789-.525 2.732l1.488 11.603 3.013 4.352.669 25.106 4.686 31.131 3.643 15.028c1.134 4.679 3.021 9.142 5.586 13.216 1.137 1.806 3.093 2.934 5.226 3.013 3.226.119 6.044-2.161 6.6-5.34.892-5.098.162-10.348-2.088-15.009l-5.912-12.247-4.352-18.411-.209-8.145c-.084-3.261-.558-6.501-1.412-9.65l-5.074-18.692 3.013-6.36.213-2.763c.076-.994-.344-1.961-1.122-2.584l-3.777-3.022-.374-3.932c-.177-1.861-1.496-3.414-3.304-3.889h-.001c-1.971-.519-4.043.365-5.033 2.146z" fill="#f5d3a6"/><path d="m181.821 120.722-17.521 1.002c-3.204.312-5.616 3.055-5.516 6.273.111 3.559 3.229 6.27 6.769 5.885l16.889-1.59z" fill="#f0c792"/><path d="m216.524 132.211-12.38 9.664c.513 3.032 3.007 5.438 6.108 6.55 4.572 1.641 9.608-.736 11.249-5.308 1.567-4.367-.801-9.056-4.977-10.906z" fill="#704c0f"/><path d="m211.49 144.942c-.01-.004-.02-.007-.03-.011-1.241-.449-1.379-2.152-.273-2.872 2.948-1.919 5.415-4.519 6.719-7.403.193-.427.361-.866.517-1.31-.579-.444-1.211-.831-1.898-1.135l-12.38 9.664c.055.324.141.638.242.946.04.125.086.248.132.37.063.161.132.318.206.474.173.373.373.732.606 1.074.001.002.003.004.004.006 1.124 1.654 2.882 2.948 4.915 3.678 3.034 1.09 6.457.299 8.859-1.852 1.822-1.631 2.596-3.452 2.814-5.256-2.143 3.443-6.462 5.052-10.433 3.627z" fill="#5e400d"/><path d="m205.002 107.1c-4.283-.244-8.889 1.118-8.889 1.118l-6.267-2.267-2.079 4.16s-5.15.83-7.282 2.397c-4.853 3.569-5.985 11.963-3.632 17.063 2.488 5.393 5.994 8.578 11.504 10.593.889.325 1.81.624 2.747.897 5.091-4.41 13.898-33.96 13.898-33.961z" fill="#f5d3a6"/><path d="m216.073 114.351c-1.632-3.326-5.611-6.356-9.27-7.039-.584-.109-1.189-.177-1.801-.212 0 0-8.807 29.55-13.897 33.961 2.54.738 5.214 1.26 7.771 1.425 6.814.44 15.038-4.481 17.853-10.706 2.436-5.388 1.894-12.231-.656-17.429z" fill="#704c0f"/><g fill="#5e400d"><path d="m213.066 121.065c-2.34-3.924-6.503-6.319-10.016-7.732-.105.324-.212.654-.323.995 3.356 1.363 7.299 3.638 9.46 7.262 2.024 3.392 3.141 7.863 3.758 11.65.29-.478.56-.962.785-1.459.004-.009.007-.018.011-.027-.67-3.56-1.791-7.531-3.675-10.689z"/><path d="m203.628 132.592c-2.133-1.509-3.9-3.626-5.302-5.73-.151.395-.303.786-.455 1.176 1.391 1.981 3.107 3.935 5.164 5.391 2.595 1.836 5.557 3.556 8.13 4.942.3-.224.592-.454.877-.692-2.628-1.402-5.725-3.184-8.414-5.087z"/><path d="m209.544 139.477c-2.812-.332-6.059-.899-8.665-1.867-2.097-.779-3.951-2.2-5.467-3.692-.155.34-.309.668-.462.992 1.55 1.475 3.428 2.863 5.572 3.66 2.293.852 5.018 1.401 7.534 1.755.508-.261 1.002-.548 1.488-.848z"/></g><path d="m194.277 226.081-20.082-40.169-9.729-29.754c-1.058-3.236-.771-6.762.796-9.785 1.359-2.621 4.137-4.194 7.084-4.009 3.439.215 6.283 2.759 6.879 6.153l2.332 13.294 6.025 27.449 6.695 13.725 8.034 24.436 5.62 15.972c.416 1.181-.163 2.481-1.319 2.962-1.113.464-2.398.014-2.978-1.044l-4.671-8.517-.946-.118c-2.476-.309-4.28-2.496-4.114-4.985z" fill="#f5d3a6"/><path d="m137.935 170.327c-1.268-2.775-2.678-5.483-4.222-8.115l-9.819-16.38s-8.732-1.937-16-16.038c2.526 7.463 7.551 17.56 17.499 29.669 6.195 7.542 10.634 11.646 13.815 13.647z" fill="#403742"/><path d="m88.377 158.903 7.804-11.492-2.502-4.875z" fill="#403742"/></svg>