<?xml version="1.0" encoding="utf-8"?>
<!-- Generator: Adobe Illustrator 16.0.0, SVG Export Plug-In . SVG Version: 6.00 Build 0)  -->
<!DOCTYPE svg PUBLIC "-//W3C//DTD SVG 1.1//EN" "http://www.w3.org/Graphics/SVG/1.1/DTD/svg11.dtd">
<svg version="1.1" id="Layer_1" xmlns="http://www.w3.org/2000/svg" xmlns:xlink="http://www.w3.org/1999/xlink" x="0px" y="0px"
	 width="188.5px" height="174px" viewBox="0 0 188.5 174" enable-background="new 0 0 188.5 174" xml:space="preserve">
<path opacity="0.8" fill="#33BD01" d="M124.901,37.693c-14.229,4.305-27.659,17.944-34.227,36.755
	c-6.568,18.811-4.546,37.844,3.912,50.07c14.231-4.303,27.66-17.942,34.228-36.753C135.383,68.953,133.361,49.92,124.901,37.693z"/>
<path opacity="0.8" fill="#33BD01" d="M149.139,50.173c-14.866-0.126-31.747,8.896-43.617,24.898
	c-11.871,16.003-15.606,34.775-11.171,48.965c14.867,0.128,31.747-8.895,43.617-24.897
	C149.838,83.137,153.574,64.365,149.139,50.173z"/>
<path opacity="0.6" fill="#33BD01" d="M171.27,74.002c-13.894-5.288-32.86-2.697-49.553,8.18
	c-16.694,10.877-26.724,27.18-27.499,42.026c13.895,5.289,32.859,2.699,49.552-8.179C160.465,105.152,170.495,88.851,171.27,74.002z
	"/>
<path opacity="0.5" fill="#33BD01" d="M182.98,99.553c-11.702-9.169-30.583-12.317-49.75-6.879
	c-19.168,5.439-33.58,18.036-38.721,31.984c11.703,9.17,30.582,12.319,49.75,6.879C163.426,126.099,177.837,113.503,182.98,99.553z"
	/>
<path fill="#33BD01" d="M94.158,124"/>
<path opacity="0.8" fill="#33BD01" d="M63.856,37.693c14.229,4.305,27.659,17.944,34.227,36.755
	c6.568,18.811,4.546,37.844-3.912,50.07c-14.231-4.303-27.66-17.942-34.228-36.753C53.375,68.953,55.397,49.92,63.856,37.693z"/>
<path opacity="0.7" fill="#33BD01" d="M39.619,50.173c14.866-0.126,31.747,8.896,43.617,24.898
	c11.871,16.003,15.606,34.775,11.171,48.965c-14.867,0.128-31.747-8.895-43.617-24.897C38.919,83.137,35.184,64.365,39.619,50.173z"
	/>
<path opacity="0.6" fill="#33BD01" d="M17.488,74.002c13.894-5.288,32.86-2.697,49.553,8.18
	c16.694,10.877,26.724,27.18,27.499,42.026c-13.895,5.289-32.859,2.699-49.552-8.179C28.292,105.152,18.263,88.851,17.488,74.002z"
	/>
<path opacity="0.5" fill="#33BD01" d="M5.778,99.553c11.702-9.169,30.583-12.317,49.75-6.879
	c19.168,5.439,33.58,18.036,38.721,31.984c-11.703,9.17-30.582,12.319-49.75,6.879C25.332,126.099,10.92,113.503,5.778,99.553z"/>
<path fill="#FFFFFF" stroke="#000000" stroke-miterlimit="10" d="M-11.842,119"/>
</svg>
